<svg width="186" height="200" viewBox="0 0 186 200" fill="none" xmlns="http://www.w3.org/2000/svg">
<g clip-path="url(#clip0_229_2)">
<path d="M161.324 20.9532C149.642 11.2644 135.099 4.80513 117.06 2.16629C114.199 1.6149 111.298 1.22104 108.437 1.02411C106.132 0.630256 103.629 0.630256 101.166 0.472713C98.106 0.0788574 95.0464 0.0788574 91.7881 0.0788574C84.5166 0.0788574 77.0464 0.630256 69.7748 1.77244L92.3841 45.2541C103.669 46.1994 112.132 49.429 118.252 54.943C125.722 61.5991 129.377 71.0911 129.377 83.0643V150.847L133.033 159.197V168.295C133.033 169.437 133.033 170.776 133.43 171.918C135.139 186.176 147.219 197.164 162.159 197.164H186.119V86.2939C186.119 56.6759 177.894 35.0139 161.404 20.9926L161.324 20.9532ZM129.338 135.644C125.881 144.388 120.517 151.004 112.848 155.376C105.377 159.945 96.9536 162.032 87.3775 162.032C77.8013 162.032 69.7351 159.945 64.0132 155.77C58.2517 151.595 55.3907 145.884 55.3907 138.677C55.3907 132.217 57.894 126.704 62.8609 122.332C67.8278 117.96 77.0464 115.872 90.4371 115.872H136.212V83.0249H84.1192C66.8742 83.0249 52.5298 84.9154 41.0066 88.7358C39.298 89.1297 37.5497 89.6811 35.8411 90.4294C23.404 95.3526 14.3841 102.206 8.62252 110.752C2.90066 119.496 0 129.579 0 141.158C0 152.737 3.0596 162.229 8.82119 171.17C14.5828 180.11 23.0066 187.121 33.9338 192.241C44.8609 197.361 57.894 200.039 73.1921 200.039C90.4371 200.039 104.623 196.81 115.51 190.154C122.98 185.782 128.901 179.913 132.954 172.509C133.152 172.312 133.152 172.115 133.351 171.958C135.258 168.925 136.609 165.498 137.96 161.717L129.338 135.723V135.644Z" fill="#000000"/>
<path d="M94.4503 91.1382H47.1258L0 0H47.1258L94.4503 91.1382Z" fill="#000000"/>
</g>
<defs>
<clipPath id="clip0_229_2">
<rect width="186" height="200" fill="white"/>
</clipPath>
</defs>
</svg>
