<svg width="40" height="40" viewBox="0 0 40 40" fill="none" xmlns="http://www.w3.org/2000/svg">
<path d="M30.0119 0C31.3819 0 32.6722 0.262843 33.8829 0.78853C35.0936 1.31422 36.1529 2.03106 37.0609 2.93907C37.9689 3.84707 38.6858 4.90641 39.2115 6.11708C39.7372 7.32776 40 8.61808 40 9.98805V29.9642C40 31.3341 39.7372 32.6324 39.2115 33.859C38.6858 35.0856 37.9689 36.1529 37.0609 37.0609C36.1529 37.9689 35.0936 38.6858 33.8829 39.2115C32.6722 39.7372 31.3819 40 30.0119 40H9.98805C8.61808 40 7.32776 39.7372 6.11708 39.2115C4.90641 38.6858 3.84707 37.9689 2.93907 37.0609C2.03106 36.1529 1.31422 35.0856 0.78853 33.859C0.262843 32.6324 0 31.3341 0 29.9642V9.98805C0 8.61808 0.262843 7.32776 0.78853 6.11708C1.31422 4.90641 2.03106 3.84707 2.93907 2.93907C3.84707 2.03106 4.90641 1.31422 6.11708 0.78853C7.32776 0.262843 8.61808 0 9.98805 0H30.0119ZM13.7634 15.006H8.74552V31.2545H13.7634V15.006ZM11.2784 13.7157C11.9474 13.7157 12.5289 13.4767 13.0227 12.9988C13.5165 12.5209 13.7634 11.9315 13.7634 11.2306C13.7634 10.5297 13.5165 9.94026 13.0227 9.46237C12.5289 8.98447 11.9474 8.74552 11.2784 8.74552C10.5775 8.74552 9.98009 8.98447 9.48626 9.46237C8.99243 9.94026 8.74552 10.5297 8.74552 11.2306C8.74552 11.9315 8.99243 12.5209 9.48626 12.9988C9.98009 13.4767 10.5775 13.7157 11.2784 13.7157ZM31.2545 21.8399C31.2545 20.693 30.9359 19.5699 30.2987 18.4707C29.6615 17.3716 28.8331 16.5352 27.8136 15.9618C26.8897 15.452 25.8144 15.1812 24.5878 15.1493C23.3612 15.1175 22.2541 15.3246 21.2664 15.7706V15.006H16.2485V31.2545H21.2664V21.3142L23.3214 20.3106C23.5763 20.1832 23.9267 20.1195 24.3728 20.1195C24.8188 20.1195 25.1533 20.1991 25.3763 20.3584C25.5675 20.454 25.7587 20.6611 25.9498 20.9797C26.141 21.2983 26.2366 21.585 26.2366 21.8399V31.2545H31.2545V21.8399Z" fill="black"/>
</svg>
